<?xml version="1.0" standalone="no"?>
<!DOCTYPE svg PUBLIC "-//W3C//DTD SVG 20010904//EN"
 "http://www.w3.org/TR/2001/REC-SVG-20010904/DTD/svg10.dtd">
<svg version="1.0" xmlns="http://www.w3.org/2000/svg"
 width="260.000000pt" height="260.000000pt" viewBox="0 0 260.000000 260.000000"
 preserveAspectRatio="xMidYMid meet">
<metadata>
Created by potrace 1.11, written by Peter Selinger 2001-2013
</metadata>
<g transform="translate(0.000000,260.000000) scale(0.100000,-0.100000)"
fill="#000000" stroke="none">
<path d="M0 1300 l0 -1300 1300 0 1300 0 0 1300 0 1300 -1300 0 -1300 0 0
-1300z m2380 1081 c14 -27 13 -37 -6 -55 -14 -14 -123 -16 -1050 -16 l-1034 0
0 -480 0 -480 1031 0 c691 0 1037 -3 1050 -10 18 -10 19 -27 19 -558 0 -413
-3 -551 -12 -560 -9 -9 -264 -12 -1085 -12 -1050 0 -1073 0 -1083 19 -14 27
-13 37 6 55 14 14 123 16 1050 16 l1034 0 0 480 0 480 -1031 0 c-691 0 -1037
3 -1050 10 -18 10 -19 27 -19 558 0 413 3 551 12 560 9 9 264 12 1085 12 1050
0 1073 0 1083 -19z"/>
</g>
</svg>
