<?xml version="1.0" encoding="utf-8"?>
<!-- Generator: Adobe Illustrator 22.1.0, SVG Export Plug-In . SVG Version: 6.00 Build 0)  -->
<svg version="1.1" id="Calque_1" xmlns="http://www.w3.org/2000/svg" xmlns:xlink="http://www.w3.org/1999/xlink" x="0px" y="0px"
	 viewBox="0 0 70 70" style="enable-background:new 0 0 70 70;" xml:space="preserve">
<path d="M41.6,43.7C48.3,41.1,53,34.6,53,27c0-9.9-8.1-18-18-18s-18,8.1-18,18c0,7.6,4.7,14.1,11.4,16.7C15.6,46.5,6,57.2,6,70h2
	c0-13.8,12.1-25,27-25s27,11.2,27,25h2C64,57.2,54.4,46.5,41.6,43.7z M19,27c0-8.8,7.2-16,16-16s16,7.2,16,16s-7.2,16-16,16
	S19,35.8,19,27z"/>
</svg>
