<?xml version="1.0" encoding="utf-8"?>
<!-- Generator: Adobe Illustrator 22.1.0, SVG Export Plug-In . SVG Version: 6.00 Build 0)  -->
<svg version="1.1" id="Calque_1" xmlns="http://www.w3.org/2000/svg" xmlns:xlink="http://www.w3.org/1999/xlink" x="0px" y="0px"
	 viewBox="0 0 23.9 55.2" style="enable-background:new 0 0 23.9 55.2;" xml:space="preserve">
<title>Artboard 1 Copy 103</title>
<path d="M1.9,12v18c0,5.5,4.5,10,10,10s10-4.5,10-10V12c0-5.5-4.5-10-10-10S1.9,6.5,1.9,12z M-0.1,12c0-6.6,5.4-12,12-12
	s12,5.4,12,12v18c0,6.6-5.4,12-12,12s-12-5.4-12-12C-0.1,30-0.1,12-0.1,12z"/>
<path d="M10.9,7v4c0,0.6,0.4,1,1,1s1-0.4,1-1V7c0-0.6-0.4-1-1-1S10.9,6.4,10.9,7z M11.9,53l5.5-5.5c0.4-0.4,1-0.4,1.4,0s0.4,1,0,1.4
	l-6.2,6.2c-0.2,0.2-0.5,0.3-0.7,0.3s-0.5-0.1-0.7-0.3l-6.3-6.3c-0.4-0.4-0.4-1,0-1.4s1-0.4,1.4,0L11.9,53z"/>
</svg>
