<svg version="1.1" id="Calque_1" xmlns="http://www.w3.org/2000/svg" x="0" y="0" viewBox="0 0 75.1 75.1" xml:space="preserve"><style>.st0{fill:#fff}</style><path class="st0" d="M75.1 38.4V14.5c0-1.9-3-1.9-3 0v23.9c0 2 3 2 3 0zM57.5.1h-56C.7.1 0 .8 0 1.6v36.1c0 1.9 3 1.9 3 0V1.6L1.5 3.1h56c1.9 0 1.9-3 0-3z"/><path class="st0" d="M74.6 13.4C69.3 9.1 63.9 4.8 58.6.5c-1.5-1.2-3.6.9-2.1 2.1 5.3 4.3 10.7 8.6 16 12.9 1.4 1.2 3.6-.9 2.1-2.1zm-2.5 24.4v22.9c0 1.9 3 1.9 3 0V37.8c0-1.9-3-1.9-3 0zM57.5 72.2h-56L3 73.7V37.6c0-1.9-3-1.9-3 0v36.1c0 .8.7 1.5 1.5 1.5h56c1.9 0 1.9-3 0-3z"/><path class="st0" d="M72.4 59.8c-5.3 4.3-10.7 8.6-16 12.9-1.5 1.2.6 3.3 2.1 2.1 5.3-4.3 10.7-8.6 16-12.9 1.6-1.2-.6-3.3-2.1-2.1z"/></svg>