<svg xmlns="http://www.w3.org/2000/svg" viewBox="0 0 170.1 75.1"><path d="M73.5.1h-72C.7.1 0 .7 0 1.6v36c0 .8.7 1.5 1.5 1.5h72L72 37.6v36l1.5-1.5h-72c-1.9 0-1.9 3 0 3h72c.8 0 1.5-.7 1.5-1.5v-36c0-.8-.7-1.5-1.5-1.5h-72L3 37.6v-36L1.5 3.1h72c1.9 0 1.9-3 0-3z" fill="#fff"/><path d="M57.5 18.1H17.4c-1.9 0-1.9 3 0 3h40.1c1.9 0 1.9-3 0-3zm54.9 3h39.1l-1.5-1.5v36l1.5-1.5h-39.1c-1.9 0-1.9 3 0 3h39.1c.8 0 1.5-.7 1.5-1.5v-36c0-.8-.7-1.5-1.5-1.5h-39.1c-1.9 0-1.9 3 0 3zm-54.9 33H17.4c-1.9 0-1.9 3 0 3h40.1c1.9 0 1.9-3 0-3z" fill="#ff521e"/><g fill="#fff"><path d="M170.1 38.4V14.5c0-1.9-3-1.9-3 0v23.9c0 2 3 2 3 0zM152.5.1h-56c-.8 0-1.5.7-1.5 1.5v36.1c0 1.9 3 1.9 3 0V1.6l-1.5 1.5h56c1.9 0 1.9-3 0-3z"/><path d="M169.6 13.4c-5.3-4.3-10.7-8.6-16-12.9-1.5-1.2-3.6.9-2.1 2.1 5.3 4.3 10.7 8.6 16 12.9 1.4 1.2 3.6-.9 2.1-2.1z"/></g><g fill="#fff"><path d="M167.1 37.8v22.9c0 1.9 3 1.9 3 0V37.8c0-1.9-3-1.9-3 0zm-14.6 34.4h-56l1.5 1.5V37.6c0-1.9-3-1.9-3 0v36.1c0 .8.7 1.5 1.5 1.5h56c1.9 0 1.9-3 0-3z"/><path d="M167.4 59.8c-5.3 4.3-10.7 8.6-16 12.9-1.5 1.2.6 3.3 2.1 2.1 5.3-4.3 10.7-8.6 16-12.9 1.6-1.2-.6-3.3-2.1-2.1z"/></g></svg>