<?xml version="1.0" encoding="utf-8"?>
<!-- Generator: Adobe Illustrator 21.1.0, SVG Export Plug-In . SVG Version: 6.00 Build 0)  -->
<svg version="1.1" id="Calque_1" xmlns="http://www.w3.org/2000/svg" xmlns:xlink="http://www.w3.org/1999/xlink" x="0px" y="0px"
	 viewBox="0 0 75 75.1" style="enable-background:new 0 0 75 75.1;" xml:space="preserve">
<style type="text/css">
	.st0{fill:#FFFFFF;}
</style>
<g>
	<path class="st0" d="M73.5,0.1c-24,0-48,0-72,0C0.7,0.1,0,0.7,0,1.6c0,12,0,24,0,36c0,0.8,0.7,1.5,1.5,1.5c24,0,48,0,72,0
		c-0.5-0.5-1-1-1.5-1.5c0,12,0,24,0,36c0.5-0.5,1-1,1.5-1.5c-24,0-48,0-72,0c-1.9,0-1.9,3,0,3c24,0,48,0,72,0c0.8,0,1.5-0.7,1.5-1.5
		c0-12,0-24,0-36c0-0.8-0.7-1.5-1.5-1.5c-24,0-48,0-72,0c0.5,0.5,1,1,1.5,1.5c0-12,0-24,0-36c-0.5,0.5-1,1-1.5,1.5c24,0,48,0,72,0
		C75.4,3.1,75.4,0.1,73.5,0.1L73.5,0.1z"/>
</g>
</svg>
