<?xml version="1.0" encoding="utf-8"?>
<!-- Generator: Adobe Illustrator 21.1.0, SVG Export Plug-In . SVG Version: 6.00 Build 0)  -->
<svg version="1.1" id="Calque_1" xmlns="http://www.w3.org/2000/svg" xmlns:xlink="http://www.w3.org/1999/xlink" x="0px" y="0px"
	 viewBox="0 0 75.1 75.1" style="enable-background:new 0 0 75.1 75.1;" xml:space="preserve">
<style type="text/css">
	.st0{fill:#FF521E;}
</style>
<g>
	<path class="st0" d="M17.4,21.1c13,0,26.1,0,39.1,0c-0.5-0.5-1-1-1.5-1.5c0,12,0,24,0,36c0.5-0.5,1-1,1.5-1.5c-13,0-26.1,0-39.1,0
		c-1.9,0-1.9,3,0,3c13,0,26.1,0,39.1,0c0.8,0,1.5-0.7,1.5-1.5c0-12,0-24,0-36c0-0.8-0.7-1.5-1.5-1.5c-13,0-26.1,0-39.1,0
		C15.5,18.1,15.5,21.1,17.4,21.1L17.4,21.1z"/>
</g>
</svg>
