<?xml version="1.0" encoding="utf-8"?>
<!-- Generator: Adobe Illustrator 21.1.0, SVG Export Plug-In . SVG Version: 6.00 Build 0)  -->
<svg version="1.1" id="Calque_1" xmlns="http://www.w3.org/2000/svg" xmlns:xlink="http://www.w3.org/1999/xlink" x="0px" y="0px"
	 viewBox="0 0 75.1 75.1" style="enable-background:new 0 0 75.1 75.1;" xml:space="preserve">
<style type="text/css">
	.st0{fill:#FFFFFF;}
</style>
<g>
	<g>
		<path class="st0" d="M75.1,38.4c0-8,0-15.9,0-23.9c0-1.9-3-1.9-3,0c0,8,0,15.9,0,23.9C72.1,40.4,75.1,40.4,75.1,38.4L75.1,38.4z"
			/>
		<path class="st0" d="M57.5,0.1c-18.7,0-37.3,0-56,0C0.7,0.1,0,0.8,0,1.6c0,12,0,24.1,0,36.1c0,1.9,3,1.9,3,0c0-12,0-24.1,0-36.1
			c-0.5,0.5-1,1-1.5,1.5c18.7,0,37.3,0,56,0C59.4,3.1,59.4,0.1,57.5,0.1L57.5,0.1z"/>
		<path class="st0" d="M74.6,13.4c-5.3-4.3-10.7-8.6-16-12.9c-1.5-1.2-3.6,0.9-2.1,2.1c5.3,4.3,10.7,8.6,16,12.9
			C73.9,16.7,76.1,14.6,74.6,13.4L74.6,13.4z"/>
	</g>
	<g>
		<path class="st0" d="M72.1,37.8c0,7.6,0,15.3,0,22.9c0,1.9,3,1.9,3,0c0-7.6,0-15.3,0-22.9C75.1,35.9,72.1,35.9,72.1,37.8
			L72.1,37.8z"/>
		<path class="st0" d="M57.5,72.2c-18.7,0-37.3,0-56,0c0.5,0.5,1,1,1.5,1.5c0-12,0-24.1,0-36.1c0-1.9-3-1.9-3,0c0,12,0,24.1,0,36.1
			c0,0.8,0.7,1.5,1.5,1.5c18.7,0,37.3,0,56,0C59.4,75.2,59.4,72.2,57.5,72.2L57.5,72.2z"/>
		<path class="st0" d="M72.4,59.8c-5.3,4.3-10.7,8.6-16,12.9c-1.5,1.2,0.6,3.3,2.1,2.1c5.3-4.3,10.7-8.6,16-12.9
			C76.1,60.7,73.9,58.6,72.4,59.8L72.4,59.8z"/>
	</g>
</g>
</svg>
