<?xml version="1.0" encoding="utf-8"?>
<!-- Generator: Adobe Illustrator 21.1.0, SVG Export Plug-In . SVG Version: 6.00 Build 0)  -->
<svg version="1.1" id="Calque_1" xmlns="http://www.w3.org/2000/svg" xmlns:xlink="http://www.w3.org/1999/xlink" x="0px" y="0px"
	 viewBox="0 0 170.1 75.1" style="enable-background:new 0 0 170.1 75.1;" xml:space="preserve">
<g>
	<path style="fill:#FFFFFF;" d="M73.5,0.1c-24,0-48,0-72,0C0.7,0.1,0,0.7,0,1.6c0,12,0,24,0,36c0,0.8,0.7,1.5,1.5,1.5
		c24,0,48,0,72,0c-0.5-0.5-1-1-1.5-1.5c0,12,0,24,0,36c0.5-0.5,1-1,1.5-1.5c-24,0-48,0-72,0c-1.9,0-1.9,3,0,3c24,0,48,0,72,0
		c0.8,0,1.5-0.7,1.5-1.5c0-12,0-24,0-36c0-0.8-0.7-1.5-1.5-1.5c-24,0-48,0-72,0c0.5,0.5,1,1,1.5,1.5c0-12,0-24,0-36
		c-0.5,0.5-1,1-1.5,1.5c24,0,48,0,72,0C75.4,3.1,75.4,0.1,73.5,0.1L73.5,0.1z"/>
	<path style="fill:#FF521E;" d="M57.5,18.1c-13.4,0-26.8,0-40.1,0c-1.9,0-1.9,3,0,3c13.4,0,26.8,0,40.1,0
		C59.4,21.1,59.4,18.1,57.5,18.1L57.5,18.1z"/>
	<path style="fill:#FF521E;" d="M112.4,21.1c13,0,26.1,0,39.1,0c-0.5-0.5-1-1-1.5-1.5c0,12,0,24,0,36c0.5-0.5,1-1,1.5-1.5
		c-13,0-26.1,0-39.1,0c-1.9,0-1.9,3,0,3c13,0,26.1,0,39.1,0c0.8,0,1.5-0.7,1.5-1.5c0-12,0-24,0-36c0-0.8-0.7-1.5-1.5-1.5
		c-13,0-26.1,0-39.1,0C110.5,18.1,110.5,21.1,112.4,21.1L112.4,21.1z"/>
	<path style="fill:#FF521E;" d="M57.5,54.1c-13.4,0-26.8,0-40.1,0c-1.9,0-1.9,3,0,3c13.4,0,26.8,0,40.1,0
		C59.4,57.1,59.4,54.1,57.5,54.1L57.5,54.1z"/>
	<g>
		<path style="fill:#FFFFFF;" d="M170.1,38.4c0-8,0-15.9,0-23.9c0-1.9-3-1.9-3,0c0,8,0,15.9,0,23.9
			C167.1,40.4,170.1,40.4,170.1,38.4L170.1,38.4z"/>
		<path style="fill:#FFFFFF;" d="M152.5,0.1c-18.7,0-37.3,0-56,0c-0.8,0-1.5,0.7-1.5,1.5c0,12,0,24.1,0,36.1c0,1.9,3,1.9,3,0
			c0-12,0-24.1,0-36.1c-0.5,0.5-1,1-1.5,1.5c18.7,0,37.3,0,56,0C154.4,3.1,154.4,0.1,152.5,0.1L152.5,0.1z"/>
		<path style="fill:#FFFFFF;" d="M169.6,13.4c-5.3-4.3-10.7-8.6-16-12.9c-1.5-1.2-3.6,0.9-2.1,2.1c5.3,4.3,10.7,8.6,16,12.9
			C168.9,16.7,171.1,14.6,169.6,13.4L169.6,13.4z"/>
	</g>
	<g>
		<path style="fill:#FFFFFF;" d="M167.1,37.8c0,7.6,0,15.3,0,22.9c0,1.9,3,1.9,3,0c0-7.6,0-15.3,0-22.9
			C170.1,35.9,167.1,35.9,167.1,37.8L167.1,37.8z"/>
		<path style="fill:#FFFFFF;" d="M152.5,72.2c-18.7,0-37.3,0-56,0c0.5,0.5,1,1,1.5,1.5c0-12,0-24.1,0-36.1c0-1.9-3-1.9-3,0
			c0,12,0,24.1,0,36.1c0,0.8,0.7,1.5,1.5,1.5c18.7,0,37.3,0,56,0C154.4,75.2,154.4,72.2,152.5,72.2L152.5,72.2z"/>
		<path style="fill:#FFFFFF;" d="M167.4,59.8c-5.3,4.3-10.7,8.6-16,12.9c-1.5,1.2,0.6,3.3,2.1,2.1c5.3-4.3,10.7-8.6,16-12.9
			C171.1,60.7,168.9,58.6,167.4,59.8L167.4,59.8z"/>
	</g>
</g>
</svg>
